<?xml version="1.0" encoding="UTF-8"?>
<!DOCTYPE svg PUBLIC "-//W3C//DTD SVG 1.1//EN" "http://www.w3.org/Graphics/SVG/1.1/DTD/svg11.dtd">
<svg xmlns="http://www.w3.org/2000/svg"
    viewBox="100 0 1200 600"
    width="100%">
<g transform="translate(200, 500)">
    <text text-anchor="middle"
        x="168.75"
        y="-425"
        font-weight="bold"
        stroke="#BF9000"
        fill="#FFFFFF">Distribution of Pain Type by Receiver Gender</text>
    <text text-anchor="middle"
        x="168.75"
        y="60"
        font-weight="bold"
        stroke="#BF9000"
        fill="#FFFFFF">Pain Type</text>
    <text font-family="Playfair Display"
        text-anchor="middle"
        x="200"
        y="-50"
        transform="rotate(-90)"
        font-weight="bold"
        stroke="#BF9000"
        fill="#FFFFFF">Pain Instances (%)</text>
    <text text-anchor="end" x="112.5" y="30">emotional</text>
    <text text-anchor="end" x="225" y="30">physical</text>
    <text text-anchor="end" x="337.5" y="30">both</text>
    <line x1="0" y1="0" x2="337.5" y2="0" stroke="#000000"/>
    <line x1="0" y1="0" x2="0" y2="-400" stroke="#000000"/>
    <line x1="0"
        y1="-100"
        x2="337.5"
        y2="-100"
        stroke="#000000"
        stroke-dasharray="3"/>
    <text x="-45" y="-95" stroke="#000000" fill="#000000">25%</text>
    <line x1="0"
        y1="-200"
        x2="337.5"
        y2="-200"
        stroke="#000000"
        stroke-dasharray="3"/>
    <text x="-45" y="-195" stroke="#000000" fill="#000000">50%</text>
    <line x1="0"
        y1="-300"
        x2="337.5"
        y2="-300"
        stroke="#000000"
        stroke-dasharray="3"/>
    <text x="-45" y="-295" stroke="#000000" fill="#000000">75%</text>
    <line x1="0"
        y1="-400"
        x2="337.5"
        y2="-400"
        stroke="#000000"
        stroke-dasharray="3"/>
    <text x="-45" y="-395" stroke="#000000" fill="#000000">100%</text>
    <rect x="367.5" y="-100" height="20" width="20" fill="#7272AB"/>
    <rect x="367.5" y="-200" height="20" width="20" fill="#7899D4"/>
    <rect x="367.5" y="-300" height="20" width="20" fill="#F8AFA6"/>
    <text text-anchor="start"
        x="392.5"
        y="-85"
        stroke="#000000"
        fill="#000000">Men</text>
    <text text-anchor="start"
        x="392.5"
        y="-185"
        stroke="#000000"
        fill="#000000">Women</text>
    <text text-anchor="start"
        x="392.5"
        y="-285"
        stroke="#000000"
        fill="#000000">Mix</text>
</g>
</svg>